<svg width="391" height="449" viewBox="0 0 391 449" fill="none" xmlns="http://www.w3.org/2000/svg">
<g clip-path="url(#clip0_67_2318)">
<path d="M368.148 365.861C367.378 364.564 364.048 365.952 363.436 364.775C362.826 363.603 365.92 361.816 367.687 357.734C368.006 356.998 370.015 352.359 368.528 350.927C365.709 348.214 352.81 359.411 348.296 355.747C347.305 354.943 346.613 353.337 343.614 350.731C342.422 349.694 341.7 349.226 341.002 349.4C340.012 349.647 339.933 350.972 338.871 353.576C337.278 357.482 336.336 357.246 335.408 360.362C334.719 362.675 334.877 364.02 334.066 364.282C332.919 364.653 331.863 362.199 330.409 362.419C328.925 362.643 328.029 365.5 327.745 367.639C327.214 371.652 328.689 374.301 329.507 377.086C330.395 380.112 330.923 384.715 328.87 391.231L308.559 448.408C313.043 436.675 326.027 404.513 331.483 392.562C333.058 389.111 334.796 385.612 338.367 384.231C341.805 382.901 346.526 383.695 352.545 382.246C353.248 382.077 355.199 381.581 355.444 380.434C355.647 379.487 354.5 378.958 354.676 378.07C354.913 376.879 357.169 376.865 359.942 375.491C361.897 374.523 363.115 373.371 364.162 372.38C364.478 372.081 369.173 367.587 368.148 365.861Z" fill="#F2F2F2"/>
<path d="M288.238 395.961C287.379 395.964 287.1 397.998 286.345 397.959C285.593 397.92 285.608 395.887 284.113 393.842C283.843 393.473 282.144 391.15 281.012 391.466C278.866 392.066 280.644 401.622 277.542 402.778C276.861 403.032 275.873 402.908 273.727 403.627C272.874 403.912 272.436 404.131 272.32 404.524C272.155 405.081 272.783 405.501 273.756 406.773C275.215 408.681 274.827 409.075 276.09 410.429C277.028 411.435 277.734 411.746 277.629 412.219C277.48 412.888 275.97 412.698 275.658 413.474C275.34 414.267 276.485 415.531 277.454 416.287C279.272 417.706 280.999 417.746 282.603 418.149C284.346 418.586 286.759 419.656 289.368 422.542L311.595 449C307.125 443.416 295.072 427.769 290.775 421.645C289.535 419.877 288.317 418.015 288.669 415.865C289.008 413.796 290.76 411.71 291.785 408.34C291.905 407.947 292.224 406.847 291.732 406.396C291.325 406.023 290.734 406.433 290.349 406.09C289.832 405.631 290.476 404.52 290.601 402.764C290.689 401.526 290.475 400.596 290.291 399.796C290.235 399.555 289.382 395.957 288.238 395.961Z" fill="#F2F2F2"/>
<path d="M305.378 399.805L304.861 395.188L305.097 394.838C306.192 393.22 306.749 391.639 306.756 390.139C306.757 389.901 306.746 389.662 306.735 389.419C306.69 388.456 306.634 387.259 307.259 385.863C307.609 385.085 308.593 383.284 310.073 383.507C310.471 383.563 310.772 383.745 311.001 383.959C311.034 383.906 311.069 383.852 311.106 383.794C311.567 383.092 311.931 382.791 312.283 382.501C312.553 382.279 312.832 382.049 313.269 381.505C313.461 381.266 313.61 381.057 313.736 380.881C314.119 380.348 314.619 379.713 315.5 379.724C316.442 379.768 316.935 380.546 317.262 381.061C317.845 381.98 318.11 382.642 318.285 383.081C318.348 383.242 318.421 383.422 318.458 383.478C318.761 383.924 321.228 383.507 322.157 383.355C324.244 383.008 326.051 382.707 326.795 384.022C327.328 384.963 326.932 386.207 325.582 387.818C325.161 388.32 324.714 388.701 324.317 389C324.646 389.196 324.941 389.497 325.06 389.97C325.341 391.089 324.378 392.21 322.199 393.307C321.658 393.581 320.93 393.947 319.909 394.123C319.428 394.205 318.995 394.225 318.625 394.237C318.617 394.451 318.567 394.682 318.437 394.921C318.054 395.623 317.257 395.958 316.057 395.877C314.736 395.808 313.648 395.556 312.689 395.336C311.851 395.144 311.129 394.981 310.563 395.019C309.512 395.104 308.702 395.944 307.751 397.034L305.378 399.805Z" fill="#F2F2F2"/>
<path d="M307.779 372.316L303.441 373.988L303.042 373.848C301.198 373.201 299.526 373.063 298.072 373.437C297.841 373.496 297.612 373.567 297.38 373.64C296.459 373.927 295.314 374.285 293.805 374.035C292.963 373.894 290.969 373.4 290.81 371.914C290.763 371.514 290.863 371.177 291.012 370.902C290.952 370.883 290.892 370.863 290.826 370.842C290.029 370.575 289.645 370.299 289.276 370.033C288.991 369.828 288.698 369.617 288.061 369.332C287.781 369.207 287.54 369.116 287.338 369.039C286.725 368.804 285.983 368.482 285.77 367.628C285.575 366.706 286.203 366.032 286.619 365.586C287.36 364.789 287.934 364.366 288.315 364.085C288.454 363.983 288.61 363.867 288.655 363.817C289.01 363.411 287.98 361.133 287.598 360.273C286.732 358.344 285.982 356.675 287.067 355.622C287.842 354.868 289.147 354.935 291.05 355.831C291.642 356.11 292.125 356.446 292.515 356.754C292.621 356.386 292.838 356.025 293.265 355.79C294.277 355.234 295.607 355.88 297.222 357.708C297.624 358.161 298.163 358.772 298.592 359.714C298.794 360.158 298.923 360.571 299.028 360.926C299.237 360.88 299.475 360.869 299.739 360.935C300.516 361.127 301.041 361.812 301.268 362.992C301.536 364.286 301.568 365.402 301.598 366.385C301.625 367.243 301.65 367.982 301.831 368.52C302.179 369.514 303.198 370.084 304.495 370.726L307.779 372.316Z" fill="#F2F2F2"/>
<path d="M305.378 358.715L304.861 354.098L305.097 353.748C306.192 352.13 306.749 350.549 306.756 349.049C306.757 348.81 306.746 348.572 306.735 348.329C306.69 347.366 306.634 346.168 307.259 344.773C307.609 343.995 308.593 342.194 310.073 342.417C310.471 342.472 310.772 342.655 311.001 342.869C311.034 342.816 311.069 342.762 311.106 342.704C311.567 342.002 311.931 341.701 312.283 341.411C312.553 341.188 312.832 340.959 313.269 340.415C313.461 340.176 313.61 339.967 313.736 339.79C314.119 339.258 314.619 338.622 315.5 338.633C316.442 338.678 316.935 339.456 317.262 339.971C317.845 340.889 318.11 341.552 318.285 341.991C318.348 342.151 318.421 342.332 318.458 342.388C318.761 342.833 321.228 342.417 322.157 342.265C324.244 341.917 326.051 341.616 326.795 342.932C327.328 343.872 326.932 345.116 325.582 346.728C325.161 347.23 324.714 347.611 324.317 347.91C324.646 348.106 324.941 348.407 325.06 348.879C325.341 349.998 324.378 351.12 322.199 352.217C321.658 352.491 320.93 352.856 319.909 353.033C319.428 353.115 318.995 353.135 318.625 353.146C318.617 353.36 318.567 353.592 318.437 353.831C318.054 354.533 317.257 354.867 316.057 354.787C314.736 354.718 313.648 354.466 312.689 354.245C311.851 354.054 311.129 353.891 310.563 353.929C309.512 354.013 308.702 354.854 307.751 355.944L305.378 358.715Z" fill="#F2F2F2"/>
<path d="M310.106 448.333L309.138 447.726L308.009 447.856C307.991 447.751 307.93 447.51 307.837 447.133C307.332 445.069 305.791 438.787 304.506 428.893C303.609 421.987 303.101 414.887 302.997 407.786C302.892 400.675 303.229 395.291 303.499 390.964C303.703 387.7 303.95 384.593 304.194 381.565C304.841 373.477 305.451 365.837 304.997 357.379C304.896 355.491 304.686 351.561 302.387 347.379C301.054 344.953 299.218 342.8 296.929 340.981L298.352 339.193C300.879 341.204 302.911 343.589 304.391 346.282C306.939 350.919 307.169 355.202 307.279 357.259C307.741 365.866 307.124 373.58 306.471 381.746C306.23 384.762 305.982 387.856 305.779 391.107C305.511 395.394 305.178 400.731 305.281 407.751C305.384 414.766 305.886 421.78 306.771 428.599C308.04 438.368 309.559 444.556 310.057 446.59C310.323 447.675 310.379 447.903 310.106 448.333Z" fill="#F2F2F2"/>
<path d="M292.738 344.608C292.645 344.608 292.55 344.606 292.454 344.599C290.508 344.494 288.706 343.331 287.098 341.141C286.344 340.111 285.958 338.937 285.188 336.594C285.068 336.232 284.488 334.4 284.136 331.879C283.905 330.231 283.934 329.542 284.261 328.934C284.623 328.256 285.21 327.783 285.871 327.465C285.842 327.246 285.865 327.021 285.96 326.791C286.349 325.839 287.384 325.964 287.945 326.024C288.228 326.06 288.582 326.107 288.963 326.087C289.563 326.058 289.886 325.88 290.374 325.612C290.842 325.356 291.423 325.037 292.285 324.861C293.986 324.506 295.41 324.988 295.88 325.146C298.351 325.969 299.569 327.888 300.979 330.111C301.26 330.557 302.225 332.179 302.862 334.404C303.322 336.009 303.257 336.723 303.119 337.253C302.838 338.343 302.174 338.968 300.488 340.345C298.728 341.788 297.844 342.51 297.086 342.949C295.32 343.968 294.211 344.608 292.738 344.608Z" fill="#F2F2F2"/>
<path d="M219.289 127.913C225.471 124.826 228.887 119.137 226.92 115.207C224.952 111.277 218.348 110.594 212.165 113.684C209.678 114.884 207.515 116.662 205.857 118.868L179.831 132.28L186.391 144.348L211.351 129.845C214.113 129.844 216.835 129.182 219.289 127.913Z" fill="#FFB6B6"/>
<path d="M71.8357 439.898L84.224 439.897L90.1171 392.154L71.8333 392.156L71.8357 439.898Z" fill="#FFB6B6"/>
<path d="M114.279 439.617C114.665 440.266 114.869 442.361 114.869 443.116C114.869 445.436 112.986 447.317 110.664 447.317H72.2992C70.7151 447.317 69.4308 446.034 69.4308 444.451V442.855C69.4308 442.855 67.5329 438.059 71.4403 432.147C71.4403 432.147 76.2967 436.776 83.5533 429.526L85.6932 425.652L101.183 436.971L109.769 438.027C111.648 438.258 113.313 437.991 114.279 439.617Z" fill="#051C2D"/>
<path d="M91.2893 387.402L102.291 393.092L129.494 353.402L113.256 345.004L91.2893 387.402Z" fill="#FFB6B6"/>
<path d="M129.11 406.65C129.154 407.404 128.371 409.358 128.023 410.028C126.956 412.088 124.419 412.894 122.356 411.827L88.2868 394.204C86.88 393.476 86.3299 391.747 87.0583 390.341L87.7927 388.924C87.7927 388.924 88.3144 383.792 94.5047 380.337C94.5047 380.337 96.6873 386.679 106.468 383.574L110.15 381.117L118.698 398.285L125.837 403.166C127.398 404.234 129 404.763 129.11 406.65Z" fill="#051C2D"/>
<path d="M59.2553 60.9504H91.7435L91.0345 71.5344L112.221 139.007L116.193 183.989L76.469 190.604L57.9312 107.255L61.9036 68.8884L59.2553 60.9504Z" fill="#1B71B2"/>
<path d="M61.2414 69.5498L26.814 86.7487L48.0001 158.19L44.0277 230.955C44.0277 230.955 98.3172 248.154 95.6689 199.203C93.0206 150.252 93.0206 142.314 93.0206 142.314L61.2414 69.5498Z" fill="#051C2D"/>
<path d="M116.193 78.4618C116.193 78.4618 124.8 72.1958 128.772 81.4568C132.745 90.7177 158.565 137.684 158.565 137.684L198.951 119.823L205.572 134.376C205.572 134.376 172.469 166.128 152.607 162.159C132.745 158.19 116.855 123.792 116.855 123.792L116.193 78.4618Z" fill="#051C2D"/>
<path d="M48 217.725C48 217.725 46.6758 238.893 49.3241 256.092C51.9724 273.29 69.8482 419.481 69.8482 419.481L92.3584 418.158L94.3446 246.831L126.124 297.104L98.317 372.515L117.517 381.114L157.903 298.427L130.096 204.495L122.151 180.681L62.5654 187.296L48 217.725Z" fill="#051C2D"/>
<path d="M136.717 223.017C136.717 223.017 100.965 233.601 93.0206 142.314L91.2236 68.71L124.8 77.4878L120.827 143.637L136.717 223.017Z" fill="#051C2D"/>
<path d="M75.8068 52.3509C88.9702 52.3509 99.6412 41.6891 99.6412 28.5371C99.6412 15.3851 88.9702 4.72327 75.8068 4.72327C62.6434 4.72327 51.9724 15.3851 51.9724 28.5371C51.9724 41.6891 62.6434 52.3509 75.8068 52.3509Z" fill="#FFB6B6"/>
<path d="M60.5792 51.6895C60.5792 51.6895 49.9862 39.7826 48.662 34.4906C47.3379 29.1987 47.3379 14.6458 48.662 13.3228C49.9862 11.9998 64.5516 -1.23013 69.8482 0.0928562C75.1447 1.41584 85.6437 8.0308 95.0067 8.0308C97.655 8.0308 98.9791 21.2607 98.9791 21.2607L88.386 22.5837C88.386 22.5837 75.1447 15.9687 76.4688 22.5837C77.793 29.1986 67.1999 29.1986 67.1999 29.1986L68.524 34.4906L64.5516 35.8136L61.9034 30.5216C61.9034 30.5216 63.2275 42.4286 67.1999 47.7205C71.1723 53.0125 60.5792 51.6895 60.5792 51.6895Z" fill="#051C2D"/>
<path d="M50.0258 242.176C53.6597 248.05 59.6382 250.937 63.3787 248.625C67.1192 246.314 67.2048 239.681 63.5688 233.806C62.1486 231.439 60.1818 229.447 57.833 227.996L42.1215 203.306L30.6824 210.919L47.3856 234.451C47.6355 237.2 48.5409 239.849 50.0258 242.176Z" fill="#FFB6B6"/>
<path d="M32.1104 86.7488H25.4898C25.4898 86.7488 -0.992874 146.283 0.331253 158.19C0.331253 158.19 0.331253 168.774 6.95192 176.712C13.5726 184.65 41.3794 229.632 41.3794 229.632L53.2966 220.371L29.4622 164.805L44.0276 106.594L32.1104 86.7488Z" fill="#051C2D"/>
<path d="M390.263 447.295C390.263 447.718 389.92 448.06 389.497 448.06H0.765893C0.342907 448.06 0 447.718 0 447.295C0 446.872 0.342898 446.53 0.765893 446.53H389.497C389.92 446.53 390.263 446.872 390.263 447.295Z" fill="#E6E6E6"/>
<path d="M246.973 169.557C243.846 169.557 240.865 168.28 238.721 166.003C224.915 151.339 217.311 132.177 217.311 112.048C217.311 95.2739 222.52 79.2592 232.373 65.7345C234.321 63.0625 237.342 61.3856 240.664 61.1343C244.037 60.8745 247.337 62.1093 249.716 64.5104L289.753 104.916C293.759 108.96 294.169 115.416 290.705 119.933L256.106 165.055C254.05 167.736 250.934 169.371 247.555 169.542C247.361 169.552 247.166 169.557 246.973 169.557Z" fill="#1B71B3"/>
<path d="M310.765 193.123C298.421 193.123 286.575 190.389 275.559 184.998C271.557 183.04 268.677 179.431 267.657 175.095C266.638 170.759 267.607 166.246 270.318 162.713L299.15 125.111C304.395 118.271 303.775 108.494 297.707 102.369L268.192 72.5826C263.926 68.2769 261.991 62.3717 262.885 56.381C263.784 50.3593 267.382 45.2445 272.757 42.3488C284.878 35.8196 298.612 32.5151 312.477 32.8122C354.26 33.6832 388.702 66.9945 390.886 108.648C392.052 130.902 384.27 152.027 368.973 168.131C353.666 184.247 332.994 193.123 310.765 193.123ZM310.795 35.5273C297.955 35.5273 301.027 47.6963 289.795 53.7465C285.186 56.2294 266.36 51.6221 265.59 56.784C264.825 61.9144 266.482 66.9723 270.136 70.6601L299.651 100.447C306.675 107.537 307.393 118.854 301.322 126.773L272.489 164.374C270.279 167.256 269.489 170.935 270.32 174.471C271.151 178.005 273.499 180.948 276.762 182.545C287.401 187.751 298.841 169.438 310.765 169.438C332.236 169.438 352.203 181.817 366.989 166.251C381.765 150.695 389.281 130.288 388.154 108.791C386.045 68.5598 352.778 36.3858 312.42 35.5442C311.878 35.5331 311.335 35.5273 310.795 35.5273Z" fill="#E6E6E6"/>
<path d="M316.024 113.29C314.465 111.47 313.685 108.806 313.685 105.296C313.685 101.82 314.465 99.1716 316.024 97.3515C317.582 95.5318 319.741 94.6217 322.498 94.6217C325.288 94.6217 327.471 95.5318 329.046 97.3515C330.622 99.1716 331.409 101.82 331.409 105.296C331.409 108.806 330.622 111.47 329.046 113.29C327.471 115.11 325.288 116.02 322.498 116.02C319.741 116.02 317.582 115.11 316.024 113.29ZM325.304 110.461C325.895 109.412 326.19 107.69 326.19 105.296C326.19 102.968 325.887 101.271 325.28 100.205C324.672 99.1396 323.745 98.6062 322.498 98.6062C321.284 98.6062 320.381 99.1396 319.79 100.205C319.199 101.271 318.904 102.968 318.904 105.296C318.904 107.657 319.199 109.371 319.79 110.437C320.381 111.503 321.284 112.035 322.498 112.035C323.778 112.035 324.714 111.511 325.304 110.461ZM324.866 125.454L342.438 95.1132C344.864 95.1132 346.378 97.7395 345.161 99.8362L327.569 130.138C325.163 130.138 323.661 127.535 324.866 125.454ZM340.985 127.752C339.426 125.932 338.647 123.251 338.647 119.709C338.647 116.233 339.426 113.593 340.985 111.789C342.544 109.986 344.719 109.084 347.509 109.084C350.298 109.084 352.473 109.986 354.032 111.789C355.591 113.593 356.371 116.25 356.371 119.758C356.371 123.268 355.591 125.932 354.032 127.752C352.473 129.572 350.298 130.482 347.509 130.482C344.719 130.482 342.544 129.572 340.985 127.752ZM350.266 124.899C350.857 123.834 351.153 122.12 351.153 119.758C351.153 117.43 350.848 115.733 350.242 114.667C349.634 113.602 348.723 113.069 347.509 113.069C346.261 113.069 345.343 113.602 344.752 114.667C344.161 115.733 343.866 117.43 343.866 119.758C343.866 122.12 344.161 123.834 344.752 124.899C345.343 125.965 346.261 126.498 347.509 126.498C348.756 126.498 349.675 125.965 350.266 124.899Z" fill="black"/>
</g>
<defs>
<clipPath id="clip0_67_2318">
<rect width="391" height="449" fill="white"/>
</clipPath>
</defs>
</svg>
