<svg width="511" height="468" viewBox="0 0 511 468" fill="none" xmlns="http://www.w3.org/2000/svg">
<g clip-path="url(#clip0_75_186)">
<path d="M410.071 61.0698L411.71 43.1751C411.998 40.0252 412.739 36.9832 413.89 34.2231C415.041 31.463 416.58 29.0388 418.419 27.0889C420.258 25.139 422.362 23.7017 424.609 22.8591C426.856 22.0165 429.203 21.785 431.516 22.178C433.829 22.5709 436.063 23.5806 438.089 25.1493C440.116 26.718 441.895 28.815 443.326 31.3205C444.757 33.826 445.812 36.6909 446.43 39.7516C447.048 42.8122 447.217 46.0087 446.927 49.1583L445.288 67.053C445.209 67.9068 444.884 68.6832 444.386 69.2117C443.887 69.7402 443.254 69.9778 442.627 69.8722L412.141 64.6927C411.514 64.5852 410.944 64.1434 410.556 63.4642C410.168 62.785 409.993 61.9239 410.071 61.0698Z" fill="#061120"/>
<path d="M424.674 66.4085C431.859 66.4085 437.684 58.4764 437.684 48.6917C437.684 38.907 431.859 30.9749 424.674 30.9749C417.489 30.9749 411.664 38.907 411.664 48.6917C411.664 58.4764 417.489 66.4085 424.674 66.4085Z" fill="#FFB8B8"/>
<path d="M407.414 43.899C407.879 38.8707 409.789 34.2988 412.726 31.1864C415.663 28.0741 419.387 26.6753 423.08 27.297L425.709 27.7436C429.401 28.3767 432.758 30.9784 435.044 34.9781C437.329 38.9778 438.356 44.0487 437.9 49.0784L437.867 49.4363L432.313 48.4927L431.08 40.9473L430.04 48.1065L427.169 47.6188L426.547 43.8118L426.022 47.424L407.381 44.2569L407.414 43.899Z" fill="#061120"/>
<path d="M361.043 111.891C361.441 112.954 362.005 113.885 362.696 114.62C363.386 115.354 364.186 115.873 365.04 116.14C365.894 116.408 366.781 116.417 367.637 116.167C368.494 115.918 369.3 115.415 369.999 114.695L381.815 124.122L387.773 115.74L370.949 102.747C369.983 101.229 368.642 100.246 367.179 99.9841C365.717 99.7224 364.235 100.2 363.014 101.327C361.793 102.455 360.918 104.152 360.555 106.099C360.191 108.046 360.365 110.107 361.043 111.891Z" fill="#FFB8B8"/>
<path d="M399.772 128.829C391.056 128.829 375.718 123.516 374.868 123.219L374.6 123.125L377.014 106.481L400.441 112.783L413.168 88.3765L427.78 86.3536L427.372 87.0845C427.182 87.425 408.347 121.19 405.415 126.855C404.676 128.284 402.563 128.829 399.772 128.829Z" fill="#1B71B3"/>
<path d="M402.108 191.297L401.76 191.07C401.685 191.022 394.28 186.117 390.444 176.541C386.627 167.01 404.497 126.581 405.747 123.776L405.765 110.937L412.194 87.3011L420.392 80.991L413.353 103.357L402.108 191.297Z" fill="#1B71B3"/>
<path d="M393.895 329.293L386.06 329.292L382.333 288.137L393.896 288.137L393.895 329.293Z" fill="#FFB8B8"/>
<path d="M395.893 339.636L370.629 339.635V339.2C370.629 335.648 371.665 332.242 373.509 329.731C375.353 327.22 377.855 325.809 380.462 325.809H380.463L395.894 325.809L395.893 339.636Z" fill="#061120"/>
<path d="M478.056 319.942L470.61 323.265L457.657 285.735L468.646 280.832L478.056 319.942Z" fill="#FFB8B8"/>
<path d="M482.32 328.924L458.311 339.636L458.212 339.223C457.4 335.848 457.605 332.172 458.784 329.003C459.962 325.835 462.016 323.433 464.494 322.327L464.495 322.327L479.158 315.785L482.32 328.924Z" fill="#061120"/>
<path d="M462.885 313.214L440.549 262.433L421.693 208.18L404.726 256.104L397.985 318.173L374.347 318.62L374.44 318.117L410.614 122.377L438.945 128.141L437.656 153.608L438.424 155.095C444.824 167.476 451.441 180.277 447.646 194.077L458.405 237.582L482.221 310.022L462.885 313.214Z" fill="#061120"/>
<path d="M411.909 164.8C407.803 164.8 403.12 158.416 405.549 147.518L405.392 147.363L411.228 112.248C406.135 102.328 412.85 94.1419 413.48 93.4106L416.685 85.5533L430.828 73.3386L437.984 154.307L437.878 154.445C432.71 161.179 415.352 164.8 411.909 164.8Z" fill="#05101F"/>
<path d="M440.873 183.07C440.311 183.082 439.75 183.001 439.203 182.829C438.653 182.642 437.762 181.688 436.386 175.586C430.916 151.332 424.457 78.3509 429.149 71.2094L429.257 71.0457L436.961 72.7943C437.602 72.1507 440.962 68.9558 444.064 69.5114C444.702 69.6208 445.317 69.9073 445.871 70.3532C446.425 70.7991 446.906 71.3949 447.284 72.1039L447.337 72.1986L449.792 119.75L458.784 175.71L458.568 175.843C458.045 176.167 446.817 183.07 440.873 183.07Z" fill="#1B71B3"/>
<path d="M435.692 164.484C436.567 164.445 437.426 164.144 438.207 163.603C438.988 163.063 439.673 162.296 440.212 161.356C440.752 160.416 441.134 159.327 441.331 158.164C441.528 157.002 441.536 155.794 441.353 154.627L452.632 144.049L449.583 133.148L433.81 148.391C432.39 148.939 431.168 150.176 430.374 151.869C429.58 153.562 429.27 155.593 429.502 157.576C429.734 159.56 430.492 161.359 431.633 162.632C432.774 163.905 434.218 164.564 435.692 164.484Z" fill="#FFB8B8"/>
<path d="M448.91 152.525L438.864 142.493L452.986 116.27L442.149 90.2267L446.997 71.3469L447.311 72.16C447.456 72.5387 461.929 110.083 464.453 116.1C467.08 122.358 449.822 151.018 449.087 152.234L448.91 152.525Z" fill="#1B71B3"/>
<path d="M350.272 208.437L165.678 216.958C161.115 217.161 156.68 214.892 153.344 210.648C150.009 206.403 148.046 200.531 147.886 194.318L144.846 72.1788C144.697 65.9657 146.363 59.9255 149.48 55.3835C152.596 50.8414 156.909 48.1684 161.471 47.9508L346.065 39.4302C350.628 39.2266 355.063 41.4959 358.399 45.7401C361.734 49.9844 363.697 55.857 363.857 62.0696L366.897 184.209C367.046 190.422 365.38 196.462 362.263 201.004C359.147 205.546 354.834 208.219 350.272 208.437Z" fill="white"/>
<path d="M366.897 184.209L366.913 184.855C367.06 190.791 365.47 196.562 362.492 200.901C359.514 205.239 355.392 207.789 351.034 207.99L165.516 216.553C161.159 216.753 156.921 214.588 153.735 210.535C150.549 206.481 148.677 200.87 148.528 194.935L148.512 194.289L366.897 184.209Z" fill="#F2F2F2"/>
<path d="M184.662 85.9813C171.368 91.1094 158.983 77.6189 156.557 64.6853L157.485 64.415C168.7 60.4919 181.588 70.9093 184.662 85.9813Z" fill="#05101F"/>
<path d="M316.1 173.295C313.105 173.433 310.693 172.33 308.931 170.016C304.947 164.786 304.929 154.352 304.914 145.968C304.91 143.529 304.906 141.224 304.804 139.299L304.803 139.27C304.723 135.503 305.737 131.844 307.626 129.09C309.515 126.336 312.126 124.707 314.892 124.559L339.721 123.413C342.712 123.275 345.122 124.377 346.883 126.687C350.867 131.913 350.887 142.345 350.904 150.727C350.909 153.171 350.914 155.48 351.017 157.409C351.101 161.181 350.088 164.847 348.198 167.607C346.307 170.368 343.693 172 340.924 172.149L316.1 173.295ZM305.845 139.212C305.949 141.183 305.953 143.506 305.957 145.964C305.972 154.08 305.989 164.181 309.655 168.993C311.228 171.059 313.325 172.001 316.065 171.875L340.887 170.729C343.377 170.596 345.729 169.13 347.431 166.65C349.132 164.17 350.046 160.875 349.975 157.482C349.87 155.533 349.866 153.201 349.861 150.731C349.844 142.617 349.824 132.518 346.159 127.711C344.587 125.649 342.492 124.707 339.756 124.834L314.928 125.98C312.44 126.113 310.091 127.578 308.391 130.055C306.691 132.532 305.776 135.822 305.845 139.212Z" fill="#1B71B3"/>
<path d="M179.209 87.5413C174.855 87.7064 170.553 86.2042 166.794 83.2056C161.29 78.8924 157.037 71.7739 155.696 64.629L155.562 63.9128L157.01 63.4905C168.393 59.5143 181.641 70.0232 184.809 85.5517L184.948 86.2326L184.449 86.4254C182.742 87.085 180.982 87.4597 179.209 87.5413ZM156.851 64.9901C158.267 71.5359 162.23 77.9895 167.315 81.9738C172.234 85.9479 178.105 87.1232 183.656 85.2453C180.386 70.7927 167.956 61.1187 157.26 64.8707L156.851 64.9901Z" fill="#1B71B3"/>
<path d="M166.751 168.908C165.183 169.06 163.613 168.627 162.211 167.656C160.81 166.685 159.628 165.213 158.795 163.397C157.828 161.232 157.286 158.765 157.223 156.233C157.159 153.701 157.575 151.19 158.431 148.94C159.189 147.014 160.323 145.411 161.709 144.308C163.094 143.206 164.677 142.647 166.281 142.695L199.364 141.168C200.961 140.978 202.566 141.393 204.001 142.366C205.436 143.339 206.646 144.833 207.498 146.683C208.464 148.848 209.004 151.315 209.067 153.846C209.13 156.378 208.713 158.889 207.856 161.138C206.299 165.067 203.511 167.256 200.008 167.371L166.925 168.898C166.867 168.902 166.809 168.905 166.751 168.908ZM166.154 144.121C164.76 144.108 163.39 144.613 162.192 145.581C160.993 146.549 160.011 147.944 159.35 149.615C158.579 151.641 158.204 153.904 158.261 156.185C158.318 158.466 158.806 160.689 159.677 162.638C160.433 164.273 161.506 165.59 162.777 166.444C164.049 167.298 165.47 167.656 166.882 167.478L199.981 165.95C201.399 165.999 202.8 165.512 204.028 164.543C205.256 163.575 206.263 162.162 206.938 160.463C207.71 158.437 208.085 156.175 208.029 153.894C207.972 151.613 207.485 149.391 206.615 147.441C205.857 145.807 204.784 144.489 203.512 143.633C202.24 142.777 200.82 142.415 199.407 142.587L166.305 144.115C166.255 144.117 166.204 144.118 166.154 144.121Z" fill="#1B71B3"/>
<path d="M323.798 141.054L313.368 141.536C312.678 141.566 312.006 141.222 311.501 140.579C310.996 139.936 310.7 139.046 310.676 138.105C310.653 137.164 310.905 136.249 311.376 135.561C311.848 134.873 312.501 134.468 313.192 134.435L323.621 133.953C324.312 133.921 324.985 134.265 325.49 134.908C325.996 135.551 326.293 136.442 326.316 137.383C326.34 138.325 326.088 139.241 325.615 139.929C325.143 140.618 324.489 141.022 323.798 141.054Z" fill="#05101F"/>
<path d="M324.08 152.416L313.651 152.898C313.309 152.914 312.967 152.838 312.646 152.675C312.324 152.511 312.03 152.263 311.779 151.945C311.529 151.626 311.326 151.243 311.184 150.818C311.042 150.393 310.963 149.934 310.952 149.468C310.94 149.001 310.996 148.536 311.117 148.098C311.237 147.661 311.42 147.261 311.654 146.92C311.889 146.579 312.17 146.304 312.482 146.111C312.795 145.919 313.132 145.812 313.474 145.796L323.904 145.315C324.246 145.299 324.588 145.374 324.909 145.538C325.23 145.701 325.525 145.949 325.775 146.268C326.026 146.587 326.228 146.969 326.37 147.394C326.512 147.819 326.591 148.278 326.603 148.745C326.615 149.212 326.559 149.677 326.438 150.114C326.317 150.551 326.135 150.952 325.901 151.293C325.666 151.634 325.385 151.909 325.073 152.101C324.76 152.294 324.423 152.401 324.08 152.416Z" fill="#05101F"/>
<path d="M324.363 163.778L313.934 164.259C313.243 164.291 312.57 163.948 312.065 163.305C311.559 162.661 311.262 161.771 311.238 160.829C311.215 159.888 311.467 158.972 311.94 158.283C312.412 157.595 313.066 157.19 313.757 157.158L324.186 156.677C324.529 156.661 324.87 156.737 325.191 156.901C325.512 157.065 325.806 157.313 326.056 157.632C326.306 157.95 326.508 158.333 326.65 158.758C326.791 159.182 326.87 159.641 326.882 160.107C326.894 160.573 326.838 161.038 326.717 161.475C326.597 161.912 326.415 162.312 326.181 162.653C325.947 162.994 325.666 163.269 325.354 163.462C325.042 163.655 324.706 163.762 324.363 163.778Z" fill="#05101F"/>
<path d="M342.048 140.212L331.619 140.693C331.277 140.71 330.935 140.634 330.614 140.471C330.292 140.307 329.998 140.059 329.747 139.74C329.497 139.422 329.295 139.039 329.153 138.614C329.011 138.189 328.931 137.73 328.92 137.263C328.908 136.797 328.964 136.331 329.085 135.894C329.205 135.457 329.388 135.056 329.622 134.715C329.857 134.375 330.138 134.1 330.45 133.907C330.763 133.714 331.1 133.607 331.443 133.592L341.872 133.111C342.214 133.095 342.555 133.171 342.876 133.335C343.197 133.499 343.491 133.747 343.741 134.066C343.991 134.384 344.193 134.767 344.335 135.191C344.477 135.616 344.556 136.075 344.567 136.541C344.579 137.007 344.523 137.472 344.403 137.909C344.282 138.346 344.1 138.746 343.866 139.087C343.632 139.428 343.351 139.703 343.039 139.896C342.727 140.089 342.391 140.196 342.048 140.212Z" fill="#05101F"/>
<path d="M342.331 151.574L331.902 152.055C331.211 152.087 330.538 151.744 330.033 151.1C329.527 150.457 329.23 149.567 329.206 148.625C329.183 147.683 329.435 146.767 329.908 146.079C330.38 145.391 331.034 144.986 331.725 144.954L342.154 144.473C342.497 144.456 342.839 144.532 343.16 144.695C343.481 144.859 343.776 145.107 344.026 145.426C344.277 145.744 344.479 146.127 344.621 146.552C344.763 146.977 344.842 147.436 344.854 147.903C344.865 148.369 344.809 148.835 344.689 149.272C344.568 149.709 344.386 150.109 344.151 150.45C343.917 150.791 343.636 151.066 343.323 151.259C343.011 151.452 342.674 151.559 342.331 151.574Z" fill="#05101F"/>
<path d="M342.614 162.936L332.185 163.417C331.842 163.433 331.5 163.358 331.179 163.194C330.858 163.031 330.564 162.783 330.313 162.464C330.062 162.145 329.86 161.763 329.718 161.338C329.576 160.913 329.497 160.454 329.486 159.987C329.474 159.52 329.53 159.055 329.65 158.618C329.771 158.181 329.954 157.78 330.188 157.439C330.422 157.098 330.704 156.824 331.016 156.631C331.328 156.438 331.665 156.331 332.008 156.316L342.437 155.834C342.78 155.819 343.121 155.895 343.442 156.059C343.762 156.222 344.056 156.471 344.307 156.789C344.557 157.108 344.759 157.49 344.9 157.915C345.042 158.34 345.121 158.798 345.133 159.265C345.144 159.731 345.088 160.196 344.968 160.633C344.848 161.069 344.666 161.47 344.432 161.811C344.198 162.151 343.917 162.426 343.605 162.619C343.293 162.812 342.956 162.92 342.614 162.936Z" fill="#05101F"/>
<path d="M364.52 88.6578L146.135 98.7383L146.17 100.159L364.555 90.078L364.52 88.6578Z" fill="#1B71B3"/>
<path d="M350.272 208.437L165.678 216.958C161.115 217.161 156.68 214.892 153.344 210.648C150.009 206.403 148.046 200.531 147.886 194.318L144.846 72.1788C144.697 65.9657 146.363 59.9255 149.48 55.3835C152.596 50.8414 156.909 48.1684 161.471 47.9508L346.065 39.4302C350.628 39.2266 355.063 41.4959 358.399 45.7401C361.734 49.9844 363.697 55.857 363.857 62.0696L366.897 184.209C367.046 190.422 365.38 196.462 362.263 201.004C359.147 205.546 354.834 208.219 350.272 208.437ZM161.506 49.3709C157.221 49.5754 153.17 52.0864 150.242 56.3532C147.314 60.62 145.749 66.294 145.889 72.1306L148.929 194.27C149.079 200.106 150.923 205.623 154.057 209.61C157.19 213.597 161.356 215.728 165.642 215.537L350.237 207.017C354.522 206.812 358.573 204.301 361.501 200.034C364.429 195.768 365.994 190.094 365.854 184.257L362.814 62.1177C362.664 56.2816 360.82 50.7649 357.687 46.7779C354.553 42.7909 350.387 40.6592 346.101 40.8504L161.506 49.3709Z" fill="#1B71B3"/>
<path d="M85.7894 178.217C85.7459 176.968 85.5018 175.747 85.0743 174.64C84.6468 173.533 84.0463 172.567 83.3151 171.81C82.5838 171.054 81.7396 170.524 80.8419 170.26C79.9443 169.996 79.015 170.003 78.1195 170.28L69.8118 154.337L61.4656 158.849L73.4299 181.14C73.8722 183.158 74.8426 184.884 76.1573 185.993C77.4719 187.101 79.0395 187.515 80.563 187.154C82.0865 186.794 83.46 185.685 84.4232 184.038C85.3865 182.391 85.8725 180.32 85.7894 178.217Z" fill="#A0616A"/>
<path d="M69.598 177.035L44.4602 132.626L53.8791 92.3136C54.5693 82.1786 59.2265 79.3485 59.4247 79.2329L59.7269 79.0563L67.9231 108.821L61.9052 130.675L76.676 164.505L69.598 177.035Z" fill="#1B71B3"/>
<path d="M156.897 40.1347C155.986 40.2903 155.111 40.7161 154.334 41.3821C153.556 42.0481 152.896 42.9381 152.398 43.9895C151.901 45.0408 151.579 46.2279 151.454 47.4671C151.33 48.7063 151.407 49.9675 151.68 51.1619L140.649 63.6741L144.598 74.6571L159.993 56.6894C161.436 55.9329 162.625 54.4819 163.335 52.6112C164.045 50.7406 164.226 48.5803 163.845 46.5397C163.463 44.4991 162.545 42.72 161.265 41.5396C159.984 40.3591 158.43 39.8592 156.897 40.1347Z" fill="#A0616A"/>
<path d="M157.284 62.2094L126.714 99.7732L96.4725 90.1017C88.999 89.9482 86.567 83.8439 86.467 83.5838L86.3143 83.187L107.472 69.7576L123.937 76.2386L147.563 53.5683L157.284 62.2094Z" fill="#1B71B3"/>
<path d="M104.332 329.25H112.546L116.453 286.106L104.33 286.107L104.332 329.25Z" fill="#A0616A"/>
<path d="M128.386 339.635L102.572 339.636L102.572 326.054L119.544 326.053C121.889 326.053 124.138 327.321 125.796 329.579C127.455 331.837 128.386 334.9 128.386 338.093L128.386 339.635Z" fill="#061120"/>
<path d="M71.5043 329.25H79.7179L83.6249 286.106L71.5024 286.107L71.5043 329.25Z" fill="#A0616A"/>
<path d="M95.5583 339.635L69.7443 339.636L69.7438 326.054L86.7161 326.053C87.8772 326.053 89.027 326.364 90.0998 326.969C91.1725 327.574 92.1472 328.461 92.9683 329.579C93.7894 330.697 94.4407 332.025 94.8851 333.485C95.3295 334.946 95.5582 336.512 95.5583 338.093L95.5583 339.635Z" fill="#061120"/>
<path d="M68.583 171.773L69.2531 235.638L69.9225 319.574L84.662 317.749L92.0314 201.881L101.411 317.749H116.628L118.16 200.969L112.8 175.422L68.583 171.773Z" fill="#061120"/>
<path d="M97.4309 180.349C81.3938 180.351 66.6318 170.467 66.4326 170.331L66.267 170.218L64.9212 126.235C64.531 124.681 56.8463 94.0123 55.5448 84.2643C54.2261 74.3882 73.3377 65.7206 75.6585 64.707L76.1852 56.7621L97.6021 53.6193L100.316 63.7852L108 67.7086C108.871 68.1538 109.592 69.0186 110.026 70.1392C110.46 71.2597 110.577 72.5583 110.355 73.7887L106.085 97.4377L116.515 175.68L114.269 175.812C108.957 178.935 103.217 180.481 97.4309 180.349Z" fill="#1B71B3"/>
<path d="M87.7329 48.5885C96.2493 48.5885 103.153 39.1868 103.153 27.5892C103.153 15.9916 96.2493 6.58991 87.7329 6.58991C79.2165 6.58991 72.3126 15.9916 72.3126 27.5892C72.3126 39.1868 79.2165 48.5885 87.7329 48.5885Z" fill="#A0616A"/>
<path d="M75.2426 47.9171C78.1813 52.18 83.639 49.8916 84.0219 44.0678C84.0519 43.6157 84.0497 43.1606 84.0154 42.709C83.8177 40.1293 82.7233 37.7873 82.9854 35.0635C83.0448 34.3856 83.2302 33.7396 83.5243 33.1866C85.866 28.9162 91.3633 35.0967 93.5734 31.2308C94.9286 28.8603 93.3356 25.1281 94.3755 22.4787C95.7481 18.982 99.8135 20.7069 102.363 18.7919C105.2 16.6612 105.03 10.7344 103.163 7.12948C100.886 2.73306 96.8929 0.387142 92.95 0.0490527C89.0071 -0.289036 85.0913 1.16244 81.4102 3.11601C77.2278 5.33565 73.0803 8.40323 70.5065 13.4114C67.3765 19.5019 67.0753 27.6899 68.6407 34.8116C69.5929 39.1437 72.8428 44.4359 75.2426 47.9171Z" fill="#061120"/>
<path d="M510.374 340.776H0.626225C0.46014 340.776 0.300857 340.686 0.183417 340.527C0.0659767 340.367 0 340.15 0 339.924C0 339.697 0.0659767 339.48 0.183417 339.321C0.300857 339.161 0.46014 339.071 0.626225 339.071H510.374C510.54 339.071 510.699 339.161 510.817 339.321C510.934 339.48 511 339.697 511 339.924C511 340.15 510.934 340.367 510.817 340.527C510.699 340.686 510.54 340.776 510.374 340.776Z" fill="#CACACA"/>
<path d="M284.26 458.234L291.658 458.233L295.178 419.373L284.259 419.374L284.26 458.234Z" fill="#FFB8B8"/>
<path d="M282.373 454.945L296.943 454.944C299.405 454.944 301.767 456.276 303.509 458.647C305.25 461.019 306.228 464.235 306.228 467.588V467.999L282.373 468L282.373 454.945Z" fill="#061120"/>
<path d="M215.467 458.234L222.866 458.233L226.385 419.373L215.466 419.374L215.467 458.234Z" fill="#FFB8B8"/>
<path d="M213.58 454.945L228.15 454.944C230.612 454.944 232.974 456.276 234.715 458.647C236.457 461.019 237.435 464.235 237.435 467.588V467.999L213.58 468L213.58 454.945Z" fill="#061120"/>
<path d="M287.209 261.029C287.209 261.029 293.419 283.983 292.532 293.647C291.644 303.312 298.741 370.964 297.854 377.004C296.967 383.044 298.741 413.246 297.854 418.079C296.967 422.911 300.344 428.683 298.57 433.515C296.796 438.347 294.306 448.28 294.306 448.28L282.773 447.072L280.999 433.783C280.999 433.783 275.676 432.575 276.563 425.327C277.451 418.078 272.128 369.756 272.128 369.756L257.047 302.104L235.756 363.715C235.756 363.715 234.869 407.206 232.208 412.038C229.546 416.87 234.869 430.159 232.208 434.991C229.546 439.824 226.885 448.28 226.885 448.28H213.578V438.616C213.578 438.616 205.594 432.575 213.578 414.454L218.973 305.63L224.296 256.099L287.209 261.029Z" fill="#061120"/>
<path d="M254.139 109.126C263.29 109.126 270.708 99.0237 270.708 86.5621C270.708 74.1004 263.29 63.9983 254.139 63.9983C244.988 63.9983 237.569 74.1004 237.569 86.5621C237.569 99.0237 244.988 109.126 254.139 109.126Z" fill="#FFB8B8"/>
<path d="M268.239 85.0056C267.07 89.0735 265.9 93.1414 264.731 97.2092C263.294 102.21 261.648 107.561 258.278 110.351C254.119 113.797 248.564 112.117 244.54 108.384C240.92 105.027 238.142 100.242 236.578 94.6718C235.014 89.1015 234.739 83.013 235.791 77.2239C236.842 71.4348 239.169 66.2224 242.459 62.2869C245.749 58.3514 249.845 55.8812 254.196 55.2082L254.363 59.2928L258.043 55.0915C258.316 55.7275 258.69 56.2713 259.139 56.682C259.587 57.0927 260.099 57.3596 260.634 57.4627C261.169 57.5658 261.715 57.5024 262.229 57.2772C262.744 57.0521 263.215 56.671 263.606 56.1627C262.639 58.8919 263.755 62.2205 265.366 64.3112C267.346 66.8795 273.008 69.9661 272.773 74.5574C272.616 77.6214 269.151 81.8304 268.239 85.0056Z" fill="#061120"/>
<path d="M208.529 294.407C207.958 293.246 207.581 291.93 207.424 290.549C207.267 289.169 207.334 287.759 207.621 286.418C207.908 285.077 208.407 283.837 209.083 282.787C209.759 281.737 210.597 280.902 211.536 280.34L211.205 258.512L220.896 255.003L221.046 285.837C221.634 288.048 221.607 290.476 220.968 292.661C220.33 294.846 219.125 296.636 217.583 297.693C216.04 298.749 214.266 298.998 212.597 298.392C210.929 297.787 209.481 296.368 208.529 294.407Z" fill="#FFB8B8"/>
<path d="M241.83 123.071C241.83 123.071 254.67 114.329 266.797 120.157C278.923 125.986 285.343 132.785 285.343 132.785L277.497 189.126L288.196 264.895C288.196 264.895 233.271 259.067 228.277 264.895C223.284 270.724 223.284 258.096 223.284 258.096L227.564 186.212L219.718 140.556L241.83 123.071Z" fill="#1B71B3"/>
<path d="M296.023 295.699C295.235 294.804 294.602 293.684 294.167 292.42C293.731 291.155 293.505 289.776 293.504 288.379C293.502 286.982 293.726 285.602 294.159 284.336C294.591 283.069 295.222 281.947 296.008 281.049L291.19 260.226L299.768 253.152L306.269 282.689C307.289 284.586 307.764 286.927 307.601 289.268C307.439 291.609 306.652 293.788 305.389 295.392C304.126 296.995 302.475 297.912 300.749 297.969C299.022 298.026 297.341 297.218 296.023 295.699Z" fill="#FFB8B8"/>
<path d="M280.35 132.785H285.343C285.343 132.785 293.19 139.585 293.19 149.299C293.19 159.013 304.603 272.667 304.603 272.667L292.476 275.581L281.776 195.926L273.93 174.555L280.35 132.785Z" fill="#1B71B3"/>
<path d="M233.271 140.556H219.718C219.718 140.556 215.438 146.385 213.298 159.984C211.158 173.584 209.018 227.011 209.018 227.011L210.444 275.581H221.144L222.571 212.44L229.704 171.641L233.271 140.556Z" fill="#1B71B3"/>
</g>
<defs>
<clipPath id="clip0_75_186">
<rect width="511" height="468" fill="white"/>
</clipPath>
</defs>
</svg>
