<?xml version="1.0" encoding="utf-8"?>
<svg xmlns="http://www.w3.org/2000/svg" viewBox="20.822 32.3852 84.516 26.4887" width="124.224px" height="75.5255px" preserveAspectRatio="none"><g id="object-19"><path d="M45.6789 38.5602C43.5533 38.5823 41.4201 38.5026 39.305 38.6629C37.9274 38.7674 36.3617 38.8809 35.2536 39.5827C32.0475 41.6132 31.9248 46.6558 34.8173 49.1337C36.0604 50.1986 37.5845 50.2424 39.0758 50.2893C41.2354 50.3572 43.3988 50.3066 45.7283 50.3066C45.7283 51.4833 45.7283 52.5357 45.5983 53.7229C44.612 55.2142 43.5446 56.2358 41.8057 56.2311C39.5858 56.2252 37.3653 56.2086 35.1463 56.2553C34.7388 56.2639 34.3372 56.5522 33.9329 56.7113C33.6462 56.7208 33.3595 56.7302 32.9398 56.6275C32.1525 56.1083 31.5229 55.9315 30.9964 56.7116C30.7941 56.7212 30.5918 56.7309 30.2587 56.6209C28.8851 56.2095 27.6351 55.7863 26.4587 56.7035C26.2566 56.7195 26.0546 56.7355 25.7325 56.6443C25.3877 56.4434 25.1627 56.2677 24.9385 56.2688C22.853 56.279 21.3847 54.8439 21.3845 52.7587C21.3839 47.2104 21.3809 41.6622 21.386 36.114C21.3878 34.0938 22.5059 32.957 24.4944 32.9509C27.1541 32.9427 29.8142 32.9699 32.4733 32.926C32.872 32.9195 33.2656 32.6088 33.6616 32.4387C33.7828 32.4268 33.9039 32.4149 34.1412 32.5322C34.4846 32.7566 34.7111 32.9327 34.9391 32.9345C37.4442 32.9548 39.9497 32.957 42.4548 32.9358C42.7319 32.9335 43.0074 32.7559 43.2837 32.6595C44.7115 33.0892 45.6826 34.2539 45.7398 35.6951C45.7745 36.5714 45.7202 37.4512 45.6892 38.4497C45.6726 38.57 45.6789 38.5602 45.6789 38.5602Z" fill="#1D71B3" id="object-0"/><path d="M82.1037 52.9057C81.714 52.5978 81.4013 52.3517 80.8978 51.9553C80.8978 53.1793 80.8978 54.295 80.8978 55.4108C80.8978 56.5595 80.8978 57.7082 80.8978 58.8739C79.5905 58.8739 78.3612 58.8739 77.071 58.8739C77.071 52.46 77.071 46.1017 77.071 39.6554C78.2835 39.6554 79.508 39.6554 80.843 39.6554C80.8725 40.1226 80.9047 40.6345 80.9152 40.8013C82.1643 40.3218 83.4866 39.4748 84.8594 39.3826C86.2302 39.2905 87.814 39.6652 89.0172 40.3457C91.6306 41.8239 92.6656 45.6752 91.6608 49.0313C90.8167 51.8505 88.133 53.9413 85.1904 53.8442C84.1787 53.8108 83.1835 53.2742 82.1037 52.9057ZM85.6723 50.237C87.2931 49.5781 87.7927 48.1789 87.9313 46.622C88.1584 44.07 86.1198 42.0118 83.8808 42.4539C81.6137 42.9017 80.487 44.8517 80.9971 47.4449C81.4518 49.7562 83.0862 50.7997 85.6723 50.237Z" fill="black" id="object-1"/><path d="M74.4729 45.8139C74.4968 48.3808 74.4968 50.8183 74.4968 53.3201C73.3407 53.3201 72.1192 53.3201 70.8524 53.3201C70.8272 52.874 70.8029 52.4455 70.7688 51.8414C68.8184 53.8472 66.6064 54.329 64.128 53.4734C62.3364 52.8549 61.2011 51.3051 61.19 49.5846C61.179 47.865 62.2671 46.3176 64.1838 45.8069C65.7052 45.4016 67.3134 45.3194 68.8853 45.111C69.4003 45.0427 69.9224 45.0285 70.435 44.99C70.4038 43.2226 69.9751 42.5954 68.6882 42.3284C67.0318 41.9847 66.3529 42.3569 65.5928 44.0373C64.3312 44.0373 63.0635 44.0373 61.7958 44.0373C61.8524 40.839 64.0891 39.2452 68.3541 39.2921C72.6449 39.3394 74.4563 41.2392 74.4729 45.8139ZM66.6948 47.6451C66.1592 48.2152 65.419 48.7128 65.1807 49.3884C65.0737 49.6919 65.8802 50.6168 66.4266 50.8022C68.582 51.5334 70.5567 49.8628 70.4259 47.3445C69.2552 47.4279 68.0846 47.5112 66.6948 47.6451Z" fill="black" id="object-2"/><path d="M96.7507 49.6325C97.6829 50.823 99.2495 51.2809 100.445 50.6521C100.886 50.4205 101.35 49.8495 101.402 49.3873C101.441 49.0487 100.896 48.434 100.49 48.294C99.4528 47.9363 98.3451 47.7887 97.2714 47.5329C94.406 46.85 93.1799 45.6298 93.2397 43.5445C93.2997 41.455 94.8317 39.8298 97.4165 39.4153C99.35 39.1052 101.314 39.095 103.121 40.1257C104.482 40.9016 105.071 42.099 105.202 43.7045C104.143 43.7045 103.168 43.7391 102.198 43.6826C101.923 43.6665 101.547 43.4509 101.414 43.2151C100.666 41.8894 99.441 41.9469 98.2623 42.1879C97.8275 42.2767 97.2439 42.8843 97.2067 43.2986C97.1743 43.6583 97.7478 44.2964 98.1742 44.4332C99.6009 44.8911 101.107 45.0991 102.536 45.5511C104.77 46.2579 105.689 47.9475 105.218 50.2291C104.909 51.7241 103.909 52.7114 102.581 53.1871C99.9881 54.1162 97.3578 54.1716 94.8796 52.747C93.3156 51.848 92.7378 50.5477 93.0214 48.7806C93.9761 48.7806 94.9506 48.7244 95.9114 48.815C96.1978 48.842 96.4456 49.2803 96.7507 49.6325Z" fill="black" id="object-3"/><path d="M54.2154 44.725C54.2154 41.3004 54.2154 38.0097 54.2154 34.6187C55.5083 34.6187 56.7253 34.6187 58.0598 34.6187C58.0598 37.7275 58.0598 40.8396 58.0598 43.9516C58.0598 45.333 58.0587 46.7143 58.06 48.0956C58.0619 50.0559 58.2048 50.2149 60.0738 50.3529C60.0738 51.4003 60.0738 52.4458 60.0738 53.6122C59.0001 53.6122 58.0298 53.6584 57.0653 53.602C55.3723 53.5031 54.2778 52.2619 54.2255 50.3393C54.1759 48.5137 54.2152 46.6858 54.2154 44.725Z" fill="black" id="object-4"/><path d="M40.33 46.8325C39.949 46.8494 39.5669 46.8533 39.1872 46.8854C37.8504 46.9983 36.9526 46.4417 36.6113 45.1271C36.2463 43.7216 36.6821 42.8194 38.1387 42.1111C38.3355 42.1098 38.4059 42.0664 38.4764 42.0231C38.9322 42.0093 39.3881 41.9955 40.003 42.0792C40.4 42.1302 40.6378 42.0837 40.8756 42.0372C42.3044 42.0185 43.7332 41.9999 45.2828 42.1337C45.4037 43.5867 45.4037 44.8873 45.4037 45.9683C44.6334 46.3177 44.0911 46.5638 43.5487 46.8098C43.503 46.834 43.4572 46.8583 43.3116 46.7534C42.2212 46.2759 41.2298 45.9171 40.33 46.8325Z" fill="#36A4C8" id="object-5"/><path d="M33.5669 32.4132C33.2657 32.6087 32.872 32.9194 32.4733 32.926C29.8143 32.9699 27.1542 32.9426 24.4945 32.9508C22.5059 32.957 21.3879 34.0937 21.386 36.1139C21.381 41.6622 21.3839 47.2104 21.3845 52.7586C21.3848 54.8439 22.8531 56.2789 24.9385 56.2688C25.1627 56.2677 25.3878 56.4433 25.6325 56.6252C22.4525 56.8886 20.8303 55.4035 20.8245 52.2081C20.8148 46.8461 20.835 41.4841 20.864 36.1221C20.8765 33.8168 22.1603 32.4649 24.4662 32.4188C27.4672 32.3588 30.4701 32.3937 33.5669 32.4132Z" fill="#2074B7" id="object-6"/><path d="M34.0569 56.7289C34.3373 56.5522 34.7389 56.2639 35.1464 56.2553C37.3654 56.2086 39.5859 56.2252 41.8059 56.2311C43.5447 56.2358 44.6121 55.2142 45.557 53.842C45.0458 55.7803 43.8547 56.7182 41.7541 56.7502C39.2303 56.7886 36.7052 56.7511 34.0569 56.7289Z" fill="#2074B7" id="object-7"/><path d="M43.194 32.5954C43.0075 32.7558 42.7319 32.9334 42.4548 32.9358C39.9497 32.9569 37.4443 32.9548 34.9391 32.9345C34.7112 32.9326 34.4846 32.7565 34.229 32.5595C37.1685 32.4822 40.1363 32.5068 43.194 32.5954Z" fill="#2074B7" id="object-8"/><path d="M43.6628 46.82C44.091 46.5638 44.6333 46.3178 45.4036 45.9683C45.4036 44.8873 45.4036 43.5868 45.4051 42.1601C45.4565 42.0142 45.5063 41.9945 45.6555 41.9891C45.7548 42.0035 45.8748 41.9927 45.8748 41.9927C45.8345 43.4473 45.7941 44.9019 45.6554 46.4831C45.4207 46.6697 45.2844 46.7299 45.1482 46.79C44.6911 46.8034 44.2341 46.8167 43.6628 46.82Z" fill="#3DB7E2" id="object-9"/><path d="M26.5811 56.7245C27.6352 55.7863 28.8852 56.2095 30.159 56.6003C29.0278 56.7148 27.8656 56.7302 26.5811 56.7245Z" fill="#2074B7" id="object-10"/><path d="M40.4526 46.8344C41.2297 45.9172 42.2211 46.276 43.2394 46.7248C42.3697 46.829 41.4725 46.8326 40.4526 46.8344Z" fill="#3DB7E2" id="object-11"/><path d="M31.1123 56.7282C31.5231 55.9315 32.1527 56.1083 32.8334 56.6095C32.3158 56.7173 31.7719 56.7311 31.1123 56.7282Z" fill="#2074B7" id="object-12"/><path d="M40.7754 42.013C40.6376 42.0837 40.3998 42.1302 40.1138 42.1072C40.2688 42.0214 40.472 42.0051 40.7754 42.013Z" fill="#3DB7E2" id="object-13"/><path d="M45.2336 46.8229C45.2845 46.7298 45.4207 46.6697 45.6349 46.6074C45.7311 46.6504 45.7493 46.6956 45.7379 46.7991C45.7084 46.8576 45.6818 46.9031 45.6818 46.9031C45.5608 46.8873 45.4399 46.8716 45.2336 46.8229Z" fill="#36A4C8" id="object-14"/><path d="M45.7304 46.8718C45.7851 46.9023 45.8176 46.9186 45.8501 46.9349C45.8022 46.9551 45.7543 46.9752 45.694 46.9492C45.6817 46.903 45.7083 46.8576 45.7304 46.8718Z" fill="#154152" id="object-15"/><path d="M38.4043 42.0052C38.4058 42.0664 38.3354 42.1098 38.2361 42.1103C38.2489 42.0408 38.2906 42.0141 38.4043 42.0052Z" fill="#3DB7E2" id="object-16"/><path d="M45.7261 41.9505C45.7741 41.9066 45.8509 41.9158 45.9013 41.9589C45.8749 41.9927 45.7549 42.0035 45.7261 41.9505Z" fill="#154152" id="object-17"/><path d="M45.6679 38.5732C45.6631 38.5765 45.7649 38.6181 45.7649 38.6181C45.7649 38.6181 45.7062 38.6111 45.6926 38.5856C45.679 38.5601 45.6727 38.5699 45.6679 38.5732Z" fill="#1D71B3" id="object-18"/></g></svg>