<svg width="469" height="532" viewBox="0 0 469 532" fill="none" xmlns="http://www.w3.org/2000/svg">
<g clip-path="url(#clip0_77_501)">
<path d="M154.024 530.791C154.024 531.461 154.535 532 155.172 532H524.717C525.354 532 525.865 531.461 525.865 530.791C525.865 530.12 525.354 529.581 524.717 529.581H155.172C154.535 529.581 154.024 530.12 154.024 530.791Z" fill="#CCCCCC"/>
<path d="M210.099 531.485H40.0011C19.2606 531.485 2.38672 513.699 2.38672 491.838V106.533C2.38672 84.6716 19.2606 66.886 40.0011 66.886H210.099C230.84 66.886 247.713 84.6716 247.713 106.533V491.838C247.713 513.699 230.84 531.485 210.099 531.485Z" fill="#051C2D"/>
<path d="M247.714 208.614C246.836 208.614 246.123 209.366 246.123 210.291V263.963C246.123 264.888 246.836 265.64 247.714 265.64C248.591 265.64 249.305 264.888 249.305 263.963V210.291C249.305 209.366 248.591 208.614 247.714 208.614Z" fill="#051C2D"/>
<path d="M244.133 106.533V491.831C244.133 510.859 230.082 526.424 212.316 527.632H212.308C212.045 527.649 211.783 527.666 211.512 527.674C211.043 527.699 210.573 527.707 210.096 527.707C210.096 527.707 208.346 527.573 205.147 527.322C201.917 527.07 197.215 526.693 191.351 526.198C189.593 526.055 187.739 525.896 185.781 525.728C181.883 525.393 177.602 525.024 173.011 524.605C171.182 524.445 169.288 524.269 167.355 524.093C157.473 523.196 146.405 522.147 134.733 520.957C132.76 520.764 130.771 520.562 128.766 520.353C128.241 520.294 127.708 520.244 127.175 520.185C118.853 519.321 5.96729 496.326 5.96729 491.831V106.533C5.96729 86.7164 21.2037 70.6567 40.0046 70.6567H60.3251C63.5713 70.6567 66.181 73.3235 66.4595 76.7367C66.4833 76.9632 66.5072 77.1896 66.547 77.416C67.1357 80.846 70.1194 83.2361 73.4292 83.2361H176.671C179.981 83.2361 182.965 80.846 183.554 77.416C183.593 77.1896 183.617 76.9632 183.641 76.7367C183.92 73.3235 186.529 70.6567 189.775 70.6567H210.096C228.897 70.6567 244.133 86.7164 244.133 106.533Z" fill="white"/>
<path d="M1.59127 168.36C0.713657 168.36 0 169.112 0 170.037V183.455C0 184.38 0.713667 185.132 1.59127 185.132C2.46887 185.132 3.18253 184.38 3.18253 183.455V170.037C3.18253 169.112 2.46887 168.36 1.59127 168.36Z" fill="#051C2D"/>
<path d="M1.59127 208.614C0.713657 208.614 0 209.366 0 210.291V236.288C0 237.213 0.713667 237.966 1.59127 237.966C2.46887 237.966 3.18253 237.213 3.18253 236.288V210.291C3.18253 209.366 2.46887 208.614 1.59127 208.614Z" fill="#051C2D"/>
<path d="M1.59127 245.513C0.713657 245.513 0 246.266 0 247.191V273.188C0 274.113 0.713667 274.865 1.59127 274.865C2.46887 274.865 3.18253 274.113 3.18253 273.188V247.191C3.18253 246.266 2.46887 245.513 1.59127 245.513Z" fill="#051C2D"/>
<path d="M59.7712 76.5303H29.3396C29.1744 76.5303 29.0405 76.6715 29.0405 76.8456V80.4082C29.0405 80.5823 29.1744 80.7235 29.3396 80.7235H59.7712C59.9364 80.7235 60.0703 80.5823 60.0703 80.4082V76.8456C60.0703 76.6715 59.9364 76.5303 59.7712 76.5303Z" fill="#1B71B3"/>
<path d="M194.804 80.7235C196.562 80.7235 197.987 79.2216 197.987 77.369C197.987 75.5163 196.562 74.0145 194.804 74.0145C193.046 74.0145 191.622 75.5163 191.622 77.369C191.622 79.2216 193.046 80.7235 194.804 80.7235Z" fill="#1B71B3"/>
<path d="M203.556 80.7235C205.314 80.7235 206.739 79.2216 206.739 77.369C206.739 75.5163 205.314 74.0145 203.556 74.0145C201.798 74.0145 200.374 75.5163 200.374 77.369C200.374 79.2216 201.798 80.7235 203.556 80.7235Z" fill="#1B71B3"/>
<path d="M212.308 80.7235C214.066 80.7235 215.491 79.2216 215.491 77.369C215.491 75.5163 214.066 74.0145 212.308 74.0145C210.55 74.0145 209.125 75.5163 209.125 77.369C209.125 79.2216 210.55 80.7235 212.308 80.7235Z" fill="#1B71B3"/>
<path d="M192.142 303.362H57.1627C55.0362 303.362 53.3062 301.539 53.3062 299.297C53.3062 297.056 55.0362 295.233 57.1627 295.233H192.142C194.269 295.233 195.999 297.056 195.999 299.297C195.999 301.539 194.269 303.362 192.142 303.362Z" fill="#1B71B3"/>
<path d="M125.136 460.879C156.02 460.879 181.057 434.49 181.057 401.937C181.057 369.385 156.02 342.996 125.136 342.996C94.2526 342.996 69.2163 369.385 69.2163 401.937C69.2163 434.49 94.2526 460.879 125.136 460.879Z" fill="#05101F"/>
<path d="M134.024 382.692C129.304 382.896 123.969 383.238 120.481 387.055C117.45 390.371 116.786 395.292 119.859 398.832C122.941 402.382 127.731 402.862 131.283 405.631C135.453 408.882 134.842 415.315 130.807 418.397C126.048 422.03 119.903 420.336 115.552 416.879C114.437 415.993 113.355 417.977 114.457 418.853C118.355 421.951 123.442 423.675 128.262 422.193C132.611 420.855 135.983 417.117 136.326 412.254C136.49 409.934 135.864 407.578 134.494 405.746C133.049 403.812 130.968 402.622 128.863 401.653C125.241 399.986 119.003 397.829 120.056 392.402C121.333 385.823 128.93 385.199 134.024 384.979C135.415 384.918 135.422 382.632 134.024 382.692Z" fill="white"/>
<path d="M125.269 379.58L125.061 429.775C125.055 431.247 127.224 431.249 127.23 429.775L127.438 379.58C127.444 378.109 125.275 378.107 125.269 379.58Z" fill="white"/>
<path d="M421.412 0H145.707C135.593 0 127.369 8.66846 127.369 19.3288V218.47C127.369 229.131 135.593 237.799 145.707 237.799H421.412C431.526 237.799 439.75 229.131 439.75 218.47V19.3288C439.75 8.66846 431.526 0 421.412 0Z" fill="white"/>
<path d="M282.291 118.407C299.331 118.407 313.144 103.848 313.144 85.8879C313.144 67.9279 299.331 53.3684 282.291 53.3684C265.252 53.3684 251.439 67.9279 251.439 85.8879C251.439 103.848 265.252 118.407 282.291 118.407Z" fill="#05101F"/>
<path d="M288.144 71.3762C284.325 71.5421 280.026 71.7973 277.137 74.7929C274.744 77.2744 273.907 81.1373 276.106 84.059C278.421 87.1351 282.272 87.7188 285.294 89.6846C287.172 90.9064 288.417 92.7573 288.458 95.136C288.495 97.363 287.52 99.4436 285.89 100.839C281.891 104.264 276.437 102.846 272.653 99.8513C271.909 99.2621 271.187 100.585 271.923 101.168C275.057 103.648 279.092 105.089 282.991 104.021C286.58 103.039 289.471 100.063 289.86 96.0864C290.27 91.8952 287.659 89.0414 284.273 87.4042C281.179 85.9077 275.751 84.3132 276.263 79.6641C276.913 73.753 283.779 73.0901 288.144 72.9005C289.072 72.8602 289.076 71.3357 288.144 71.3762Z" fill="white"/>
<path d="M281.507 68.6119L281.334 110.438C281.33 111.419 282.776 111.421 282.78 110.438L282.954 68.6119C282.958 67.6309 281.511 67.6296 281.507 68.6119Z" fill="white"/>
<path d="M421.412 0H145.707C135.593 0 127.369 8.66846 127.369 19.3288V218.47C127.369 229.131 135.593 237.799 145.707 237.799H421.412C431.526 237.799 439.75 229.131 439.75 218.47V19.3288C439.75 8.66846 431.526 0 421.412 0ZM437.822 218.47C437.822 228.013 430.466 235.767 421.412 235.767H145.707C136.653 235.767 129.297 228.013 129.297 218.47V19.3288C129.297 9.78636 136.653 2.03247 145.707 2.03247H421.412C430.466 2.03247 437.822 9.78635 437.822 19.3288V218.47Z" fill="#051C2D"/>
<path d="M251.772 19.6641H224.718C223.358 19.6641 222.25 20.8328 222.25 22.2657C222.25 23.7087 223.358 24.8774 224.718 24.8774H251.772C253.131 24.8774 254.24 23.7087 254.24 22.2657C254.24 20.8328 253.131 19.6641 251.772 19.6641Z" fill="#1B71B3"/>
<path d="M297.086 19.6641H270.032C268.673 19.6641 267.564 20.8328 267.564 22.2657C267.564 23.7087 268.673 24.8774 270.032 24.8774H297.086C298.445 24.8774 299.554 23.7087 299.554 22.2657C299.554 20.8328 298.445 19.6641 297.086 19.6641Z" fill="#1B71B3"/>
<path d="M342.401 19.6641H315.347C313.988 19.6641 312.879 20.8328 312.879 22.2657C312.879 23.7087 313.988 24.8774 315.347 24.8774H342.401C343.76 24.8774 344.869 23.7087 344.869 22.2657C344.869 20.8328 343.76 19.6641 342.401 19.6641Z" fill="#1B71B3"/>
<path d="M387.021 136.7H180.097C171.487 136.7 164.488 144.078 164.488 153.153V168.01C164.488 177.085 171.487 184.463 180.097 184.463H387.021C395.631 184.463 402.631 177.085 402.631 168.01V153.153C402.631 144.078 395.631 136.7 387.021 136.7Z" fill="#05101F"/>
<path d="M70.5549 214.926L62.6201 210.964C65.8746 215.751 68.679 223.228 70.1803 229.177C72.7223 223.635 76.8201 216.854 80.8762 212.804L72.49 215.078C77.6576 188.383 97.094 169.219 119.352 169.219V167.187C96.103 167.187 75.8312 187.153 70.5549 214.926Z" fill="#051C2D"/>
<path d="M107.076 255.599H56.9405C54.8141 255.599 53.084 253.776 53.084 251.534C53.084 249.293 54.8141 247.469 56.9405 247.469H107.076C109.202 247.469 110.932 249.293 110.932 251.534C110.932 253.776 109.202 255.599 107.076 255.599Z" fill="#1B71B3"/>
<path d="M440.592 242.36L440.086 283.862L430.289 320.859L422.458 317.779L425.935 283.868L425.478 237.978L440.592 242.36Z" fill="#FFB6B6"/>
<path d="M430.256 326.824C431.175 321.504 429.49 316.726 426.494 316.15C423.497 315.575 420.323 319.422 419.404 324.742C418.485 330.061 420.169 334.84 423.166 335.415C426.163 335.99 429.337 332.144 430.256 326.824Z" fill="#FFB6B6"/>
<path d="M428.704 192.944C428.704 192.944 445.487 193.187 445.472 202.584C445.464 207.89 444.383 256.062 441.375 285.326C439.055 307.893 434.626 313.781 434.626 313.781L424.021 288.375L428.704 192.944Z" fill="#1B71B3"/>
<path d="M428.272 277.736H371.593C376.344 266.562 379.264 255.92 374.698 247.456L428.272 244.182C425.595 255.609 425.268 266.823 428.272 277.736Z" fill="#FFB6B6"/>
<path d="M421.284 178.711L398.768 177.074L389.451 189.35L384.727 190.255C377.647 191.612 372.605 198.272 372.921 205.85L374.759 249.866L428.578 254.003L441.472 196.685L425.943 190.169L421.284 178.711Z" fill="#1B71B3"/>
<path d="M283.969 191.989C285.567 193.504 286.707 195.273 287.31 196.99L303.393 210.407L297.112 218.286L281.473 203.828C279.791 203.377 278.001 202.368 276.403 200.854C272.754 197.393 271.489 192.603 273.578 190.156C275.668 187.708 280.32 188.529 283.969 191.989Z" fill="#FFB6B6"/>
<path d="M397.677 203.284L336.052 247.145L291.879 214.743L298.511 202.081L333.278 223.377L365.34 197.429C376.757 186.125 391.067 188.316 397.677 203.284Z" fill="#1B71B3"/>
<path d="M408.691 173.399C417.916 173.399 425.395 165.516 425.395 155.791C425.395 146.067 417.916 138.184 408.691 138.184C399.465 138.184 391.986 146.067 391.986 155.791C391.986 165.516 399.465 173.399 408.691 173.399Z" fill="#FFB6B6"/>
<path d="M431.396 151.466V154.88L412.557 149.291L398.432 152.411C398.268 150.145 397.632 147.919 396.571 145.947C397.309 149.109 397.392 151.556 396.61 152.817L394.71 153.234C394.402 152.35 393.804 151.577 393.023 151.11C392.946 151.059 392.85 151.018 392.763 151.049C392.628 151.1 392.618 151.283 392.618 151.425C392.637 152.177 392.657 152.929 392.686 153.681L387.229 154.88V151.466C381.993 139.049 395.792 128.305 409.317 128.194C415.42 128.144 420.935 130.795 424.936 135.003C428.928 139.22 431.396 145.033 431.396 151.466Z" fill="#051C2D"/>
<path d="M441.994 191.504L440.572 191.379C440.673 190.889 440.774 190.405 440.867 189.915C441.655 185.799 439.92 180.56 439.792 176.607C439.123 180.784 440.268 185.923 439.083 189.89C438.951 190.33 433.803 193.174 433.662 193.609C427.964 191.413 422.031 184.396 415.313 188.494C411.339 190.918 406.806 189.856 402.294 188.746C401.177 188.471 401.022 182.659 399.917 182.43C397.938 182.021 395.031 187.305 393.168 187.512L400.881 156.008C400.881 138.87 399.375 120.89 419.971 126.95C425.151 128.474 430.278 129.668 434.101 134.175C437.925 138.687 440.647 144.994 441.611 152.175C442.193 156.508 445.822 171.219 441.994 191.504Z" fill="#051C2D"/>
<path d="M428.694 508.301L419.499 508.53L414.374 464.99L427.943 464.652L428.694 508.301Z" fill="#FFB7B7"/>
<path d="M397.148 528.52C397.148 530.158 398.251 531.485 399.611 531.485H417.861C417.861 531.485 419.657 523.875 426.98 520.601L427.485 531.485H436.9L435.759 513.983C435.759 513.983 438.278 504.62 433.047 499.834C427.817 495.047 432.053 495.714 432.053 495.714L429.996 484.882L415.769 486.645L415.664 503.649L408.76 520.527L398.633 525.799C397.732 526.269 397.148 527.338 397.148 528.52Z" fill="#051C2D"/>
<path d="M400.721 501.206L391.882 503.886L376.442 463.143L389.486 459.186L400.721 501.206Z" fill="#FFB7B7"/>
<path d="M375.075 529.201C375.47 530.784 376.855 531.773 378.17 531.41L395.824 526.528C395.824 526.528 395.729 518.687 402.023 513.561L405.133 523.954L414.239 521.436L408.922 504.812C408.922 504.812 409.104 495.082 402.893 491.851C396.681 488.621 400.939 488.132 400.939 488.132L396.341 478.205L383.005 483.716L386.997 500.191L384.382 518.363L375.857 526.172C375.098 526.867 374.791 528.057 375.075 529.201Z" fill="#051C2D"/>
<path d="M423.056 275.164L428.841 277.196C437.886 294.803 441.72 318.185 441.212 346.38L430.937 473.014H414.125L401.822 331.939L380.129 384.889L396.001 473.014L380.129 474.72L348.161 383.084L370.424 276.581L423.056 275.164Z" fill="#051C2D"/>
</g>
<defs>
<clipPath id="clip0_77_501">
<rect width="526" height="532" fill="white"/>
</clipPath>
</defs>
</svg>
